HIERARCHY
ROOT Spine
{
    OFFSET 0.0 0.0 -0.0
    CHANNELS 6 Xposition Yposition Zposition Zrotation Xrotation Yrotation
    JOINT ShoulderCenter
    {
        OFFSET 0.0 32.490726470947266 0.0
        CHANNELS 3 Zrotation Xrotation Yrotation
        JOINT LeftShoulder
        {
            OFFSET 21.936573028564453 0.0 0.0
            CHANNELS 3 Zrotation Xrotation Yrotation
            JOINT LeftElbow
            {
                OFFSET 28.045602798461914 0.0 0.0
                CHANNELS 3 Zrotation Xrotation Yrotation
                JOINT LeftHand
                {
                    OFFSET 31.32959747314453 0.0 0.0
                    CHANNELS 3 Zrotation Xrotation Yrotation
                    End Site
                    {
                        OFFSET 12.531839370727539 0.0 0.0
                    }
                }
            }
        }
        JOINT RightShoulder
        {
            OFFSET -21.936573028564453 0.0 0.0
            CHANNELS 3 Zrotation Xrotation Yrotation
            JOINT RightElbow
            {
                OFFSET -28.045602798461914 0.0 0.0
                CHANNELS 3 Zrotation Xrotation Yrotation
                JOINT RightHand
                {
                    OFFSET -31.32959747314453 0.0 0.0
                    CHANNELS 3 Zrotation Xrotation Yrotation
                    End Site
                    {
                        OFFSET -12.531839370727539 0.0 0.0
                    }
                }
            }
        }
        End Site
        {
            OFFSET 0.0 12.996288299560547 0.0
        }
    }
    JOINT LeftHip
    {
        OFFSET 14.255296877409608 -14.255296877409608 0.0
        CHANNELS 3 Zrotation Xrotation Yrotation
        JOINT LeftKnee
        {
            OFFSET 0.0 -38.6229362487793 0.0
            CHANNELS 3 Zrotation Xrotation Yrotation
            JOINT LeftFoot
            {
                OFFSET 0.0 -40.78139114379883 0.0
                CHANNELS 3 Zrotation Xrotation Yrotation
                End Site
                {
                    OFFSET 0.0 0.0 16.312557220458984
                }
            }
        }
    }
    JOINT RightHip
    {
        OFFSET -14.255296877409608 -14.255296877409608 0.0
        CHANNELS 3 Zrotation Xrotation Yrotation
        JOINT RightKnee
        {
            OFFSET 0.0 -38.6229362487793 0.0
            CHANNELS 3 Zrotation Xrotation Yrotation
            JOINT RightFoot
            {
                OFFSET 0.0 -40.78139114379883 0.0
                CHANNELS 3 Zrotation Xrotation Yrotation
                End Site
                {
                    OFFSET 0.0 0.0 16.312557220458984
                }
            }
        }
    }
}
MOTION
Frames: 10
Frame Time: 0.03333333333333333
-5.299999713897705 -20.200000762939453 -8.399999618530273 -58.884655719840346 -36.51756641956415 108.54717097427452 4.853730271854894e-07 3.1030885654621335e-06 13.714207712195657 126.83430541597035 -21.077057870789396 -158.26643491243092 1.1979917523401108e-06 1.6457100127887184e-06 70.95122790683136 -6.3611093629270335e-15 -3.531125038440127e-31 6.3611093629270335e-15 -124.56908091215159 -10.034681598939725 115.91027806376182 6.544853741487745e-06 -1.1104071973732941e-06 -48.70217556172596 6.3611093629270335e-15 6.3611093629270335e-15 3.1805546814635164e-15 170.37326915243608 -50.59799766386781 -127.1734771160998 62.518941210549386 23.057453477535496 -52.39825506886001 -2.4848083448933725e-16 -3.975693351829396e-16 1.8636062586700292e-16 -87.61095691744646 -49.85569261102553 169.1986922066173 -78.53919247071245 17.569374573082968 150.86091728646318 3.1805546814635164e-15 -3.1805546814635168e-15 -7.156248033292914e-15
-2.8999998569488525 -20.200000762939453 -8.600000381469727 -57.00229864547547 -31.83408925390351 104.45962350535024 2.244418321823617e-06 -1.5679735521947765e-06 13.039254005698615 127.17767052217431 -20.09402074350364 -161.79099868204437 -4.2647773964179955e-06 1.6231547035984338e-07 69.29174104437274 3.1805546814635176e-15 3.1805546814635176e-15 -8.827812596100317e-32 -125.10309784359403 -13.56403573788266 117.73750345942526 4.3434009556067525e-06 6.468337061387421e-07 -51.12580584422606 -6.3611093629270335e-15 -3.1805546814635168e-15 -1.7655625192200634e-31 164.66977045754837 -53.13008346575429 -128.76331419662048 62.522619148084125 16.581784707255558 -40.10029023081676 0.0 0.0 6.708982531212107e-16 -92.28881225764317 -53.30402304017568 170.48198941792782 -77.67118419840484 19.635047178105065 137.12045343868877 3.1805546814635176e-15 3.1805546814635176e-15 -2.3854160110976384e-15
-3.5999999046325684 -19.600000381469727 -8.100000381469727 -57.66355127255458 -25.180942309567055 97.46155897622764 1.0033544837156183e-06 -3.0253054524950297e-06 15.560516177645557 124.27752312172055 -19.166700148626088 -163.83697343906556 -3.4352145618164224e-06 4.111788458676506e-06 68.07072345142488 3.1805546814635168e-15 0.0 0.0 -126.26817862821026 -15.583882884555303 119.14010827987875 -4.20524245250225e-07 6.251192396051276e-07 -52.26304255094933 -6.3611093629270335e-15 -6.3611093629270335e-15 -3.1805546814635168e-15 152.11828621477238 -52.201169042852655 -137.41352761251304 64.69573151024655 13.889658336163425 -62.97520749103681 -1.1927080055488188e-15 -3.1035278658165176e-32 2.9817700138720468e-15 -96.37934825315322 -57.35671241518935 166.9923315209369 -76.33584863746928 17.632640638277472 140.62206274644225 1.5902773407317584e-15 3.1805546814635164e-15 -7.95138670365879e-15
-4.0 -19.400001525878906 -6.700000286102295 -57.93453575242133 -20.767005251020873 91.19744829792141 3.850540613032467e-06 -4.319588461070522e-06 18.24825169813308 122.61153216856044 -17.508662311765825 -165.3404963677657 -9.275866458367078e-07 1.8860095684837018e-06 65.96396243131888 6.3611093629270335e-15 3.1805546814635168e-15 6.3611093629270335e-15 -123.74846738528291 -16.89002505276504 120.25926887684392 2.6913349411538405e-08 4.641922842972471e-06 -52.46793356021152 0.0 0.0 1.5902773407317584e-15 142.05902304946042 -49.37726475126146 -142.43864923086596 66.50930424084909 9.414252630924864 -88.62538041115161 -7.951386703658794e-16 1.551763932908259e-33 -2.2363275104040355e-16 -101.54067448899592 -61.725436059938275 165.03957420323295 -75.50081029118242 19.202210523889246 135.3271702922548 0.0 0.0 -2.3854160110976368e-15
-4.099999904632568 -19.5 -5.299999713897705 -58.36819176081411 -17.6024160502678 86.41897299392711 1.8670743039076455e-06 -1.4578534423507732e-06 21.476200257004777 121.82770597876929 -16.72583561640137 -165.14928153036882 2.455910605788721e-06 -1.5279163011128646e-06 63.48580871842333 0.0 0.0 0.0 -121.94907795904605 -16.971171924326836 120.9344704484804 6.09038820007943e-07 -3.890161926644662e-06 -51.517945722506106 0.0 0.0 0.0 135.64216353693377 -46.89051822421915 -145.41084105534196 66.53234340942697 5.695720024606429 -105.08919098179871 -1.7890620083232284e-15 -9.939233379573503e-17 7.889266495036458e-15 -109.31750952760196 -65.02662389231108 160.19202988859269 -75.36363935875403 20.75999064447822 126.00045941515278 -1.5902773407317584e-15 -2.758691436281349e-32 1.987846675914698e-15
-3.799999952316284 -19.0 -4.099999904632568 -59.00480993875423 -15.380250308895016 85.48357857997921 -1.41477325780623e-06 4.030572292318645e-06 21.456083895226044 120.0145325095292 -15.885402615182489 -165.8162127245053 1.8252726851542377e-06 -9.594633143772952e-07 61.2771708324981 0.0 0.0 0.0 -119.16495973932406 -16.70578927960868 121.26145212809382 -2.3401158914859733e-06 -1.9156717262947605e-06 -50.08420030740359 -6.361109362927035e-15 -6.361109362927035e-15 -7.951386703658797e-16 132.74029648836242 -46.629237979809155 -147.45025160862636 66.03188826002427 6.30995980718786 -114.66781566908465 3.975693351829396e-16 1.987846675914698e-16 -1.341796506242421e-15 -111.86733279837759 -64.58503136088426 156.6213653919183 -74.59032099799987 19.276359126306353 121.3559556663371 3.1805546814635168e-15 -9.931289170612858e-32 -3.578124016646457e-15
-3.5999999046325684 -19.0 -3.200000047683716 -59.378212885012886 -13.176750025214838 85.24243225527229 3.410349301606022e-06 -2.0308613544182175e-06 21.614757960951916 118.83744914876407 -16.236232958025063 -166.71683378026646 4.6885288016781564e-06 -3.976598039917869e-06 60.159695947099834 -6.361109362927033e-15 -3.531125038440127e-31 6.361109362927033e-15 -116.99250660662003 -15.885124384331391 121.68787747217142 -1.2741320490932938e-06 -1.1241464341335422e-06 -48.02769743084668 1.3241718894150476e-31 -6.3611093629270335e-15 2.3854160110976376e-15 130.38067546331783 -46.14693820388528 -148.49012881368526 65.4844664055306 7.082850353494732 -111.42140862431766 -1.5902773407317582e-15 -1.5902773407317582e-15 -3.6278201835443235e-15 -114.4411296787913 -64.12695173423653 154.96668035802517 -74.50445208969153 19.22831509241612 117.57459705365812 0.0 0.0 2.782985346280577e-15
-3.4000000953674316 -19.400001525878906 -2.6000001430511475 -60.05431784226365 -11.706385577475636 86.32766186905471 -4.6504551576529195e-08 -2.6125254806085657e-06 21.551605336272463 117.61449972027776 -17.44855435629988 -167.96226597059496 3.900856195541282e-06 -3.8030376632249616e-06 60.557308201019 -1.7655625192200634e-31 -3.1805546814635176e-15 -6.361109362927035e-15 -114.6425511618209 -13.845297423400114 121.62923493022836 1.0035665992616492e-06 2.3340912104549853e-06 -46.15150053389165 -3.8621680107938887e-31 6.3611093629270335e-15 6.957463365701443e-15 130.86737760462466 -46.270233636285624 -148.5798603764983 65.56962213301891 9.336274277724936 -99.29119364468635 1.8636062586700312e-17 -1.5902773407317584e-15 1.3744096157691467e-15 -117.09268770549019 -62.505637376316656 153.33363420403938 -75.27783485384485 19.151190740836864 115.44738522199675 0.0 0.0 -6.758678698109972e-15
-3.200000047683716 -20.0 -2.4000000953674316 -61.015446365306964 -11.559171308406274 88.50934106042448 1.8958540468492086e-06 3.5751690187059526e-08 21.11362302003072 117.46443679328637 -18.72202146821977 -168.1165705923335 3.4795779359099567e-06 -2.1552943701366946e-06 60.85005870348612 1.7655625192200634e-31 3.1805546814635168e-15 -6.3611093629270335e-15 -112.99425217910417 -11.165494657605803 120.63138671048506 -1.4729403163558689e-06 4.504711086689308e-06 -43.67208901322328 0.0 0.0 -2.043754863674799e-15 133.95548560041735 -47.05807549258223 -147.1795265819142 65.43602139514473 11.735217759591245 -83.73930148795596 0.0 0.0 -2.7829853462805768e-15 -118.56536826737184 -60.31979273679383 152.19492803112107 -76.31850081411837 18.04987829620468 115.01318511014617 3.180554681463516e-15 -6.361109362927033e-15 -4.373262687012335e-15
-3.0999999046325684 -20.900001525878906 -2.5 -61.980638853642816 -12.273150374766988 91.34275977036258 8.262092265795001e-07 4.4523256553067886e-07 20.79123409329692 117.40770878986895 -19.64738206423079 -167.67432407346465 -2.591370709689479e-06 2.446427204665713e-06 60.80075536261776 0.0 0.0 0.0 -110.55592622856166 -7.882785159729452 118.77631924287292 -2.3041608892479056e-06 8.606321589989505e-06 -40.43896987467364 6.3611093629270335e-15 6.3611093629270335e-15 -1.9878466759147014e-16 139.13351578899784 -47.617854900290865 -144.67939018023995 66.3646841297608 14.821115867529377 -75.47100963136835 -1.9878466759146985e-16 7.951386703658792e-16 5.367186024969684e-15 -119.50900658569422 -57.136074972372235 150.8066314403432 -78.32314133094656 16.225530225929834 117.27821912090967 -4.770832022195277e-15 -3.641472695891381e-31 8.746525374024672e-15
